<svg width="654" height="692" viewBox="0 0 654 692" fill="none" xmlns="http://www.w3.org/2000/svg">
<path d="M420 0H0V575H420V0Z" fill="#E6E6E6"/>
<path d="M405 20H15V555H405V20Z" fill="white"/>
<path d="M356.827 114H155.157C153.523 113.997 151.957 113.047 150.803 111.36C149.648 109.672 149 107.385 149 105C149 102.615 149.648 100.328 150.803 98.6402C151.957 96.9527 153.523 96.0031 155.157 96H356.827C357.638 95.9985 358.44 96.2301 359.189 96.6817C359.938 97.1333 360.618 97.796 361.192 98.6319C361.765 99.4677 362.22 100.46 362.53 101.553C362.84 102.646 363 103.817 363 105C363 106.183 362.84 107.354 362.53 108.447C362.22 109.54 361.765 110.532 361.192 111.368C360.618 112.204 359.938 112.867 359.189 113.318C358.44 113.77 357.638 114.002 356.827 114Z" fill="#E6E6E6"/>
<path d="M356.856 205H156.128C154.502 204.997 152.943 204.047 151.794 202.36C150.645 200.672 150 198.385 150 196C150 193.615 150.645 191.328 151.794 189.64C152.943 187.953 154.502 187.003 156.128 187H356.856C357.663 186.998 358.461 187.23 359.207 187.682C359.952 188.133 360.629 188.796 361.2 189.632C361.771 190.468 362.223 191.46 362.532 192.553C362.841 193.646 363 194.817 363 196C363 197.183 362.841 198.354 362.532 199.447C362.223 200.54 361.771 201.532 361.2 202.368C360.629 203.204 359.952 203.867 359.207 204.318C358.461 204.77 357.663 205.002 356.856 205V205Z" fill="#E6E6E6"/>
<path d="M356.827 296H155.157C153.523 295.997 151.957 295.1 150.803 293.506C149.648 291.913 149 289.752 149 287.5C149 285.248 149.648 283.087 150.803 281.494C151.957 279.9 153.523 279.003 155.157 279H356.827C357.638 278.999 358.44 279.217 359.189 279.644C359.938 280.07 360.618 280.696 361.192 281.486C361.765 282.275 362.22 283.213 362.53 284.245C362.84 285.277 363 286.383 363 287.5C363 288.617 362.84 289.723 362.53 290.755C362.22 291.787 361.765 292.725 361.192 293.514C360.618 294.304 359.938 294.93 359.189 295.356C358.44 295.783 357.638 296.001 356.827 296V296Z" fill="#E6E6E6"/>
<path d="M356.827 388H155.157C153.523 387.997 151.957 387.047 150.803 385.36C149.648 383.672 149 381.385 149 379C149 376.615 149.648 374.328 150.803 372.64C151.957 370.953 153.523 370.003 155.157 370H356.827C357.638 369.998 358.44 370.23 359.189 370.682C359.938 371.133 360.618 371.796 361.192 372.632C361.765 373.468 362.22 374.46 362.53 375.553C362.84 376.646 363 377.817 363 379C363 380.183 362.84 381.354 362.53 382.447C362.22 383.54 361.765 384.532 361.192 385.368C360.618 386.204 359.938 386.867 359.189 387.318C358.44 387.77 357.638 388.002 356.827 388V388Z" fill="#E6E6E6"/>
<path d="M356.827 479H155.157C153.523 478.997 151.957 478.047 150.803 476.36C149.648 474.672 149 472.385 149 470C149 467.615 149.648 465.328 150.803 463.64C151.957 461.953 153.523 461.003 155.157 461H356.827C357.638 460.998 358.44 461.23 359.189 461.682C359.938 462.133 360.618 462.796 361.192 463.632C361.765 464.468 362.22 465.46 362.53 466.553C362.84 467.646 363 468.817 363 470C363 471.183 362.84 472.354 362.53 473.447C362.22 474.54 361.765 475.532 361.192 476.368C360.618 477.204 359.938 477.867 359.189 478.318C358.44 478.77 357.638 479.002 356.827 479V479Z" fill="#E6E6E6"/>
<path d="M321.832 114H154.185C153.373 114.002 152.569 113.77 151.818 113.318C151.068 112.867 150.386 112.204 149.812 111.368C149.238 110.532 148.782 109.54 148.471 108.447C148.16 107.354 148 106.183 148 105C148 103.817 148.16 102.646 148.471 101.553C148.782 100.46 149.238 99.4677 149.812 98.6319C150.386 97.796 151.068 97.1333 151.818 96.6817C152.569 96.2301 153.373 95.9985 154.185 96H321.832C323.468 96.0031 325.037 96.9527 326.194 98.6402C327.35 100.328 328 102.615 328 105C328 107.385 327.35 109.672 326.194 111.36C325.037 113.047 323.468 113.997 321.832 114V114Z" fill="#1E90FF"/>
<path d="M269.861 205H155.131C153.505 205 151.945 204.052 150.796 202.364C149.646 200.676 149 198.387 149 196C149 193.613 149.646 191.324 150.796 189.636C151.945 187.948 153.505 187 155.131 187H269.861C270.667 186.998 271.465 187.23 272.21 187.682C272.955 188.133 273.631 188.796 274.202 189.632C274.772 190.468 275.224 191.46 275.533 192.553C275.841 193.646 276 194.817 276 196C276 197.183 275.841 198.354 275.533 199.447C275.224 200.54 274.772 201.532 274.202 202.368C273.631 203.204 272.955 203.867 272.21 204.318C271.465 204.77 270.667 205.002 269.861 205V205Z" fill="#1E90FF"/>
<path d="M206.775 296H154.241C153.422 296.001 152.61 295.783 151.853 295.356C151.096 294.93 150.408 294.304 149.828 293.514C149.249 292.725 148.789 291.787 148.475 290.755C148.161 289.723 148 288.617 148 287.5C148 286.383 148.161 285.277 148.475 284.245C148.789 283.213 149.249 282.275 149.828 281.486C150.408 280.696 151.096 280.07 151.853 279.644C152.61 279.217 153.422 278.999 154.241 279H206.775C208.427 279.003 210.01 279.9 211.177 281.494C212.344 283.087 213 285.248 213 287.5C213 289.752 212.344 291.913 211.177 293.506C210.01 295.1 208.427 295.997 206.775 296Z" fill="#1E90FF"/>
<path d="M284.554 388H152.446C151.267 388 150.136 387.052 149.302 385.364C148.468 383.676 148 381.387 148 379C148 376.613 148.468 374.324 149.302 372.636C150.136 370.948 151.267 370 152.446 370H284.554C285.733 370 286.864 370.948 287.698 372.636C288.532 374.324 289 376.613 289 379C289 381.387 288.532 383.676 287.698 385.364C286.864 387.052 285.733 388 284.554 388Z" fill="#1E90FF"/>
<path d="M296.828 479H154.172C153.362 479.002 152.56 478.77 151.811 478.318C151.062 477.867 150.382 477.204 149.808 476.368C149.235 475.532 148.78 474.54 148.47 473.447C148.16 472.354 148 471.183 148 470C148 468.817 148.16 467.646 148.47 466.553C148.78 465.46 149.235 464.468 149.808 463.632C150.382 462.796 151.062 462.133 151.811 461.682C152.56 461.23 153.362 460.998 154.172 461H296.828C297.638 460.998 298.44 461.23 299.189 461.682C299.938 462.133 300.618 462.796 301.192 463.632C301.765 464.468 302.22 465.46 302.53 466.553C302.84 467.646 303 468.817 303 470C303 471.183 302.84 472.354 302.53 473.447C302.22 474.54 301.765 475.532 301.192 476.368C300.618 477.204 299.938 477.867 299.189 478.318C298.44 478.77 297.638 479.002 296.828 479V479Z" fill="#1E90FF"/>
<path d="M360.988 287.907C360.988 287.907 354.702 241.814 344.227 254.385C333.751 266.956 344.227 285.812 344.227 285.812L352.607 296.288L360.988 290.003V287.907Z" fill="#FFC088"/>
<path d="M386.13 302.574C386.13 302.574 365.178 279.527 360.988 283.717C356.798 287.907 344.227 290.003 346.322 298.383C348.417 306.764 392.415 334.001 392.415 334.001L386.13 302.574Z" fill="#1E90FF"/>
<path opacity="0.1" d="M386.13 302.574C386.13 302.574 365.178 279.527 360.988 283.717C356.798 287.907 344.227 290.003 346.322 298.383C348.417 306.764 392.415 334.001 392.415 334.001L386.13 302.574Z" fill="black"/>
<path d="M505.554 300.478V317.24C505.554 317.24 507.649 354.953 495.078 352.857C482.507 350.762 488.793 319.335 488.793 319.335L490.888 300.478L505.554 300.478Z" fill="#FFC088"/>
<path d="M499.268 421.998C499.268 421.998 518.125 451.33 524.41 453.425C530.696 455.52 564.218 474.377 568.409 493.233L597.741 530.946L583.075 549.802C583.075 549.802 516.03 478.567 497.173 472.281C478.317 465.996 459.46 434.568 459.46 434.568L499.268 421.998Z" fill="#FFC088"/>
<path d="M350.512 373.809C350.512 373.809 310.704 380.094 316.99 405.236C323.275 430.378 384.035 482.757 384.035 482.757L386.13 495.328L409.177 499.518L419.652 489.043L417.557 482.757C417.557 482.757 392.415 459.71 390.32 451.33C388.225 442.949 365.178 409.427 354.702 407.332L369.369 398.951L350.512 373.809Z" fill="#FFC088"/>
<path d="M591.455 530.946C591.455 530.946 583.075 518.375 595.646 520.47C608.217 522.565 616.597 524.66 616.597 533.041C616.597 541.422 606.121 600.086 593.55 595.896C580.979 591.705 591.455 572.849 591.455 572.849C591.455 572.849 585.17 556.088 580.98 553.993C576.789 551.897 576.789 541.422 580.98 541.422C585.17 541.422 593.55 535.136 591.455 530.946Z" fill="#2F2E41"/>
<path d="M413.367 484.852C413.367 484.852 413.367 474.377 421.748 484.852C430.128 495.328 434.318 503.709 425.938 509.994C417.557 516.28 388.225 530.946 388.225 530.946C388.225 530.946 356.798 537.231 360.988 522.565C360.988 522.565 381.94 512.089 381.94 503.709C381.94 495.328 381.94 480.662 388.225 484.852C394.51 489.043 413.367 491.138 413.367 484.852Z" fill="#161616"/>
<path d="M453.175 327.715C453.175 327.715 482.507 331.906 480.412 373.809C480.412 373.809 518.125 411.522 507.649 424.093C497.173 436.664 474.126 459.71 465.746 453.425C457.365 447.14 432.223 398.951 432.223 398.951C432.223 398.951 373.559 419.902 363.083 409.427C352.607 398.951 342.131 373.809 342.131 373.809L394.51 346.572L453.175 327.715Z" fill="#2F2E41"/>
<path d="M371.464 208.291C385.349 208.291 396.606 197.035 396.606 183.149C396.606 169.264 385.349 158.008 371.464 158.008C357.578 158.008 346.322 169.264 346.322 183.149C346.322 197.035 357.578 208.291 371.464 208.291Z" fill="#FFC088"/>
<path d="M390.32 185.245C390.32 185.245 404.986 208.291 409.177 210.387C413.367 212.482 379.844 233.433 379.844 233.433C379.844 233.433 379.844 206.196 369.368 199.911L390.32 185.245Z" fill="#FFC088"/>
<path d="M392.415 208.291C392.415 208.291 425.938 197.816 432.223 214.577C438.509 231.338 453.175 262.765 451.08 283.717C448.985 304.669 444.794 300.478 451.08 306.764C457.365 313.049 461.555 308.859 459.46 317.24C457.365 325.62 455.27 325.62 457.365 329.811C459.46 334.001 432.223 348.667 409.177 350.762L386.13 352.857C386.13 352.857 386.13 315.144 381.94 306.764C377.749 298.383 369.368 281.622 369.368 275.336V258.706C369.368 247.636 372.257 236.759 377.749 227.148C377.749 227.148 390.32 208.291 392.415 208.291Z" fill="#1E90FF"/>
<path d="M417.557 216.672C417.557 216.672 495.078 222.957 503.459 243.909C511.839 264.861 516.03 306.764 507.649 306.764C499.268 306.764 488.793 310.954 486.697 306.764C484.602 302.574 476.222 260.67 474.126 260.67C472.031 260.67 409.177 254.385 409.177 254.385C409.177 254.385 381.939 220.862 417.557 216.672Z" fill="#1E90FF"/>
<path d="M370.454 176.916C370.454 176.916 363.782 165.322 355.442 175.393C347.102 185.464 333.535 166.957 335.618 163.008C337.7 159.059 345.055 163.185 357.66 159.065C370.264 154.944 394.544 146.55 398.611 173.932C402.677 201.314 392.992 198.443 392.992 198.443C392.992 198.443 388.553 174.18 384.541 181.149L380.529 188.119L377.049 188.975L370.454 176.916Z" fill="#2F2E41"/>
<ellipse cx="90" cy="105" rx="32" ry="31" fill="#E6E6E6"/>
<circle cx="90" cy="96" r="12" fill="#C4C4C4"/>
<path d="M68.6248 117.965C70.8372 121.613 73.946 124.633 77.6555 126.74C81.3651 128.846 85.5519 129.968 89.8176 129.999C94.0834 130.03 98.2861 128.97 102.026 126.917C105.766 124.865 108.918 121.891 111.184 118.276L90 105L68.6248 117.965Z" fill="#C4C4C4"/>
<ellipse cx="90" cy="196" rx="32" ry="31" fill="#E6E6E6"/>
<circle cx="90" cy="187" r="12" fill="#C4C4C4"/>
<path d="M68.6248 208.965C70.8372 212.613 73.946 215.633 77.6555 217.74C81.3651 219.846 85.5519 220.968 89.8176 220.999C94.0834 221.03 98.2861 219.97 102.026 217.917C105.766 215.865 108.918 212.891 111.184 209.276L90 196L68.6248 208.965Z" fill="#C4C4C4"/>
<ellipse cx="90" cy="294" rx="32" ry="31" fill="#E6E6E6"/>
<circle cx="90" cy="285" r="12" fill="#C4C4C4"/>
<path d="M68.6248 306.965C70.8372 310.613 73.946 313.633 77.6555 315.74C81.3651 317.846 85.5519 318.968 89.8176 318.999C94.0834 319.03 98.2861 317.97 102.026 315.917C105.766 313.865 108.918 310.891 111.184 307.276L90 294L68.6248 306.965Z" fill="#C4C4C4"/>
<ellipse cx="90" cy="379" rx="32" ry="31" fill="#E6E6E6"/>
<circle cx="90" cy="370" r="12" fill="#C4C4C4"/>
<path d="M68.6248 391.965C70.8372 395.613 73.946 398.633 77.6555 400.74C81.3651 402.846 85.5519 403.968 89.8176 403.999C94.0834 404.03 98.2861 402.97 102.026 400.917C105.766 398.865 108.918 395.891 111.184 392.276L90 379L68.6248 391.965Z" fill="#C4C4C4"/>
<ellipse cx="90" cy="469" rx="32" ry="31" fill="#E6E6E6"/>
<circle cx="90" cy="460" r="12" fill="#C4C4C4"/>
<path d="M68.6248 481.965C70.8372 485.613 73.946 488.633 77.6555 490.74C81.3651 492.846 85.5519 493.968 89.8176 493.999C94.0834 494.03 98.2861 492.97 102.026 490.917C105.766 488.865 108.918 485.891 111.184 482.276L90 469L68.6248 481.965Z" fill="#C4C4C4"/>
</svg>
